STARTFONT 2.1
COMMENT
COMMENT Converted from OpenType font "..\ttf\ITC Avant Garde Gothic CE Book.otf" by "otf2bdf.exe 3.0".
COMMENT
FONT -FreeType-AvantGarde CE-Medium-R-Normal--30-220-100-100-P-144-ISO10646-1
SIZE 22 100 100
FONTBOUNDINGBOX 37 37 -2 -7
STARTPROPERTIES 19
FOUNDRY "FreeType"
FAMILY_NAME "AvantGarde CE"
WEIGHT_NAME "Medium"
SLANT "R"
SETWIDTH_NAME "Normal"
ADD_STYLE_NAME ""
PIXEL_SIZE 30
POINT_SIZE 220
RESOLUTION_X 100
RESOLUTION_Y 100
SPACING "P"
AVERAGE_WIDTH 144
CHARSET_REGISTRY "ISO10646"
CHARSET_ENCODING "1"
FONT_ASCENT 22
FONT_DESCENT 5
COPYRIGHT "Copyright (c) 1985, 1987, 1989, 1990, 1991, 1992, 1997 Adobe Systems Incorporated.  All Rights Reserved.ITC Avant Garde Gothic is a registered trademark of International Typeface Corporation."
_OTF_FONTFILE "..\ttf\ITC Avant Garde Gothic CE Book.otf"
_OTF_PSNAME "AvantGardeCE-Book"
ENDPROPERTIES
CHARS 260
STARTCHAR 0020
ENCODING 32
SWIDTH 261 0
DWIDTH 8 0
BBX 0 0 0 0
BITMAP
ENDCHAR
STARTCHAR 0021
ENCODING 33
SWIDTH 294 0
DWIDTH 9 0
BBX 2 23 3 0
BITMAP
C0
C0
C0
C0
C0
C0
C0
C0
C0
C0
C0
C0
C0
C0
C0
C0
C0
00
00
C0
C0
C0
C0
ENDCHAR
STARTCHAR 0022
ENCODING 34
SWIDTH 294 0
DWIDTH 9 0
BBX 7 9 1 13
BITMAP
C6
C6
C6
C6
C6
C6
C6
C6
C6
ENDCHAR
STARTCHAR 0023
ENCODING 35
SWIDTH 556 0
DWIDTH 17 0
BBX 15 23 1 0
BITMAP
0618
0618
0618
0618
0618
0618
0E38
7FFE
7FFE
0C30
0C30
0C30
0C30
0C70
1860
FFFC
FFFC
1860
1860
1860
38E0
30C0
30C0
ENDCHAR
STARTCHAR 0024
ENCODING 36
SWIDTH 556 0
DWIDTH 17 0
BBX 13 28 2 -2
BITMAP
0600
0600
0600
0FC0
3FE0
3070
6038
6018
6018
6000
7000
3800
3E00
0FC0
01E0
0070
0038
0018
0018
C018
C018
6030
7070
3FE0
0F80
0600
0600
0600
ENDCHAR
STARTCHAR 0025
ENCODING 37
SWIDTH 785 0
DWIDTH 24 0
BBX 22 23 1 0
BITMAP
1F00C0
3F8180
60C180
C0E300
C06300
C06600
C06600
E0EC00
71CC00
3F9800
1F3000
003000
0061C0
0067F0
00CE38
00DC1C
01980C
01980C
03180C
021C0C
060E18
0C07F0
0C03E0
ENDCHAR
STARTCHAR 0026
ENCODING 38
SWIDTH 752 0
DWIDTH 23 0
BBX 20 23 2 0
BITMAP
07C000
0FE000
1C7000
383800
301800
301800
381800
1C3000
1FF0E0
0FC0C0
1F81C0
39C180
70E380
E07700
C03E00
C01E00
C00E00
C01F00
E01B80
6039C0
78F0E0
3FE070
0F8020
ENDCHAR
STARTCHAR 0027
ENCODING 39
SWIDTH 196 0
DWIDTH 6 0
BBX 2 9 2 13
BITMAP
C0
C0
C0
C0
C0
C0
C0
C0
C0
ENDCHAR
STARTCHAR 0028
ENCODING 40
SWIDTH 360 0
DWIDTH 11 0
BBX 9 29 2 -6
BITMAP
0080
0380
0780
0E00
1C00
1800
3800
3000
6000
6000
E000
C000
C000
C000
C000
C000
C000
C000
E000
6000
6000
7000
3800
1800
1C00
0E00
0780
0380
0080
ENDCHAR
STARTCHAR 0029
ENCODING 41
SWIDTH 360 0
DWIDTH 11 0
BBX 9 30 1 -6
BITMAP
8000
C000
F000
7800
3800
1C00
0E00
0600
0700
0300
0300
0380
0180
0180
0180
0180
0180
0180
0380
0300
0300
0700
0600
0E00
1C00
1800
3800
F000
C000
8000
ENDCHAR
STARTCHAR 002A
ENCODING 42
SWIDTH 425 0
DWIDTH 13 0
BBX 10 9 2 13
BITMAP
0C00
0C00
0C00
FFC0
7F80
1E00
3E00
3300
2100
ENDCHAR
STARTCHAR 002B
ENCODING 43
SWIDTH 621 0
DWIDTH 19 0
BBX 16 16 1 0
BITMAP
0180
0180
0180
0180
0180
0180
0180
FFFF
FFFF
0180
0180
0180
0180
0180
0180
0180
ENDCHAR
STARTCHAR 002C
ENCODING 44
SWIDTH 261 0
DWIDTH 8 0
BBX 5 6 0 -2
BITMAP
38
30
30
60
60
E0
ENDCHAR
STARTCHAR 002D
ENCODING 45
SWIDTH 327 0
DWIDTH 10 0
BBX 8 2 1 8
BITMAP
FF
FF
ENDCHAR
STARTCHAR 002E
ENCODING 46
SWIDTH 261 0
DWIDTH 8 0
BBX 2 4 3 0
BITMAP
C0
C0
C0
C0
ENDCHAR
STARTCHAR 002F
ENCODING 47
SWIDTH 425 0
DWIDTH 13 0
BBX 11 26 1 -4
BITMAP
00E0
00C0
00C0
01C0
0180
0180
0380
0300
0300
0700
0600
0600
0E00
0E00
0C00
1C00
1C00
1800
3800
3800
3000
3000
7000
6000
6000
E000
ENDCHAR
STARTCHAR 0030
ENCODING 48
SWIDTH 556 0
DWIDTH 17 0
BBX 15 23 1 0
BITMAP
07C0
1FF0
3878
701C
600C
C00E
C006
C006
C006
C006
C006
C006
C006
C006
C006
C006
C006
C006
E00C
701C
3838
1FF0
07C0
ENDCHAR
STARTCHAR 0031
ENCODING 49
SWIDTH 556 0
DWIDTH 17 0
BBX 6 23 4 0
BITMAP
FC
FC
0C
0C
0C
0C
0C
0C
0C
0C
0C
0C
0C
0C
0C
0C
0C
0C
0C
0C
0C
0C
0C
ENDCHAR
STARTCHAR 0032
ENCODING 50
SWIDTH 556 0
DWIDTH 17 0
BBX 15 23 1 0
BITMAP
07C0
1FF0
3838
701C
600E
C006
C006
C006
0006
000C
001C
0038
0070
00E0
01C0
0380
0700
0E00
1800
3000
E000
FFFE
FFFE
ENDCHAR
STARTCHAR 0033
ENCODING 51
SWIDTH 556 0
DWIDTH 17 0
BBX 14 23 1 0
BITMAP
07C0
0FE0
1C70
3838
3018
3018
0018
0038
0070
03E0
03F0
0078
0018
001C
000C
000C
C00C
C00C
E01C
7018
3878
1FF0
07C0
ENDCHAR
STARTCHAR 0034
ENCODING 52
SWIDTH 556 0
DWIDTH 17 0
BBX 16 23 0 0
BITMAP
001C
003C
003C
007C
006C
00CC
01CC
018C
030C
070C
060C
0E0C
1C0C
180C
380C
700C
600C
FFFF
FFFF
000C
000C
000C
000C
ENDCHAR
STARTCHAR 0035
ENCODING 53
SWIDTH 556 0
DWIDTH 17 0
BBX 15 23 1 0
BITMAP
1FF8
1FF8
1800
1800
3800
3000
3000
37C0
3FF0
7838
701C
000C
0006
0006
0006
C006
C006
E006
600C
701C
3C38
1FF0
07C0
ENDCHAR
STARTCHAR 0036
ENCODING 54
SWIDTH 556 0
DWIDTH 17 0
BBX 15 23 1 0
BITMAP
00C0
01C0
0380
0300
0700
0E00
0C00
1BC0
3FF0
3838
701C
600C
C006
C006
C006
C006
C006
E006
600C
701C
3C38
1FF0
07C0
ENDCHAR
STARTCHAR 0037
ENCODING 55
SWIDTH 556 0
DWIDTH 17 0
BBX 13 23 2 0
BITMAP
FFF8
FFF8
0018
0030
0030
0060
0060
00E0
00C0
01C0
0180
0180
0300
0300
0700
0600
0E00
0C00
1C00
1800
1800
3000
3000
ENDCHAR
STARTCHAR 0038
ENCODING 56
SWIDTH 556 0
DWIDTH 17 0
BBX 14 23 1 0
BITMAP
07C0
1FE0
3870
7038
6018
6018
6018
7038
3870
1FE0
1FF0
3878
7018
E01C
C00C
C00C
C00C
C00C
E01C
7018
3870
1FE0
0FC0
ENDCHAR
STARTCHAR 0039
ENCODING 57
SWIDTH 556 0
DWIDTH 17 0
BBX 15 23 1 0
BITMAP
07C0
1FF0
3878
701C
600C
E00E
C006
C006
C006
C006
E006
600C
701C
3838
1FF8
07B0
0060
00E0
01C0
0180
0380
0700
0600
ENDCHAR
STARTCHAR 003A
ENCODING 58
SWIDTH 261 0
DWIDTH 8 0
BBX 2 17 3 0
BITMAP
C0
C0
C0
C0
00
00
00
00
00
00
00
00
00
C0
C0
C0
C0
ENDCHAR
STARTCHAR 003B
ENCODING 59
SWIDTH 261 0
DWIDTH 8 0
BBX 4 19 1 -2
BITMAP
30
30
30
30
00
00
00
00
00
00
00
00
00
30
70
60
E0
C0
C0
ENDCHAR
STARTCHAR 003C
ENCODING 60
SWIDTH 621 0
DWIDTH 19 0
BBX 16 16 1 1
BITMAP
0003
000F
003E
00F0
07C0
1F00
7C00
E000
F000
7C00
0F00
03E0
00F8
003E
0007
0001
ENDCHAR
STARTCHAR 003D
ENCODING 61
SWIDTH 621 0
DWIDTH 19 0
BBX 15 8 2 4
BITMAP
FFFE
FFFE
0000
0000
0000
0000
FFFE
FFFE
ENDCHAR
STARTCHAR 003E
ENCODING 62
SWIDTH 621 0
DWIDTH 19 0
BBX 16 16 2 1
BITMAP
C000
F000
7C00
0F00
03E0
00F8
003E
0007
000F
003E
00F0
07C0
1F00
7C00
E000
8000
ENDCHAR
STARTCHAR 003F
ENCODING 63
SWIDTH 589 0
DWIDTH 18 0
BBX 14 23 2 0
BITMAP
07C0
1FF0
3878
7038
601C
C00C
C00C
000C
001C
0018
0038
0070
00C0
01C0
0180
0300
0300
0000
0000
0300
0300
0300
0300
ENDCHAR
STARTCHAR 0040
ENCODING 64
SWIDTH 883 0
DWIDTH 27 0
BBX 23 23 2 0
BITMAP
007F00
03FFC0
0F00F0
1C0038
38001C
30000C
703CCC
60FE86
E1C386
C18186
C30186
C30186
C30106
C3030C
E3030C
618718
61FDF0
3078E0
380000
1C0000
0F0030
03FFF0
00FF80
ENDCHAR
STARTCHAR 0041
ENCODING 65
SWIDTH 752 0
DWIDTH 23 0
BBX 22 23 0 0
BITMAP
007000
007800
007800
00FC00
00CC00
01CE00
018600
018600
030700
030300
070380
060180
0E01C0
0FFFC0
0FFFC0
1800E0
180060
380070
300030
700038
600038
600018
E0001C
ENDCHAR
STARTCHAR 0042
ENCODING 66
SWIDTH 589 0
DWIDTH 18 0
BBX 14 23 2 0
BITMAP
FF80
FFE0
C0F0
C038
C018
C018
C018
C018
C038
C070
FFE0
FFF0
C078
C01C
C00C
C00C
C00C
C00C
C00C
C018
C078
FFF0
FFC0
ENDCHAR
STARTCHAR 0043
ENCODING 67
SWIDTH 818 0
DWIDTH 25 0
BBX 22 23 1 0
BITMAP
00FE00
03FFC0
0F83E0
1E0070
380038
30001C
700000
600000
E00000
C00000
C00000
C00000
C00000
C00000
E00000
600000
700000
30001C
3C0038
1E0070
0F81E0
03FF80
00FE00
ENDCHAR
STARTCHAR 0044
ENCODING 68
SWIDTH 752 0
DWIDTH 23 0
BBX 19 23 2 0
BITMAP
FFE000
FFF800
C03E00
C00F00
C00380
C001C0
C000C0
C000C0
C00060
C00060
C00060
C00060
C00060
C00060
C00060
C000C0
C000C0
C00180
C00380
C00700
C03E00
FFF800
FFE000
ENDCHAR
STARTCHAR 0045
ENCODING 69
SWIDTH 523 0
DWIDTH 16 0
BBX 12 23 2 0
BITMAP
FFF0
FFF0
C000
C000
C000
C000
C000
C000
C000
C000
FFF0
FFF0
C000
C000
C000
C000
C000
C000
C000
C000
C000
FFF0
FFF0
ENDCHAR
STARTCHAR 0046
ENCODING 70
SWIDTH 490 0
DWIDTH 15 0
BBX 11 23 2 0
BITMAP
FFE0
FFE0
C000
C000
C000
C000
C000
C000
C000
C000
C000
FFE0
FFE0
C000
C000
C000
C000
C000
C000
C000
C000
C000
C000
ENDCHAR
STARTCHAR 0047
ENCODING 71
SWIDTH 883 0
DWIDTH 27 0
BBX 24 23 1 0
BITMAP
007F00
03FFC0
0781E0
0E0078
1C0038
38001C
70000E
600000
600000
E00000
C00000
C00000
C00000
C07FFF
E07FFF
600006
700006
30000C
38001C
1E0078
0F81F0
03FFC0
00FE00
ENDCHAR
STARTCHAR 0048
ENCODING 72
SWIDTH 687 0
DWIDTH 21 0
BBX 16 23 2 0
BITMAP
C003
C003
C003
C003
C003
C003
C003
C003
C003
C003
FFFF
FFFF
C003
C003
C003
C003
C003
C003
C003
C003
C003
C003
C003
ENDCHAR
STARTCHAR 0049
ENCODING 73
SWIDTH 229 0
DWIDTH 7 0
BBX 2 23 2 0
BITMAP
C0
C0
C0
C0
C0
C0
C0
C0
C0
C0
C0
C0
C0
C0
C0
C0
C0
C0
C0
C0
C0
C0
C0
ENDCHAR
STARTCHAR 004A
ENCODING 74
SWIDTH 490 0
DWIDTH 15 0
BBX 12 23 0 0
BITMAP
0030
0030
0030
0030
0030
0030
0030
0030
0030
0030
0030
0030
0030
0030
0030
0030
0030
C030
E030
6070
78E0
3FC0
0F80
ENDCHAR
STARTCHAR 004B
ENCODING 75
SWIDTH 589 0
DWIDTH 18 0
BBX 15 23 3 0
BITMAP
C00E
C01C
C038
C038
C070
C0E0
C1C0
C180
C380
C700
CE00
DE00
DE00
FF00
F380
E1C0
C0C0
C0E0
C070
C038
C018
C01C
C00E
ENDCHAR
STARTCHAR 004C
ENCODING 76
SWIDTH 458 0
DWIDTH 14 0
BBX 11 23 3 0
BITMAP
C000
C000
C000
C000
C000
C000
C000
C000
C000
C000
C000
C000
C000
C000
C000
C000
C000
C000
C000
C000
C000
FFE0
FFE0
ENDCHAR
STARTCHAR 004D
ENCODING 77
SWIDTH 916 0
DWIDTH 28 0
BBX 24 23 2 0
BITMAP
F0000F
F0000F
F8001F
D8001B
D8001B
DC003B
CC0033
CE0073
C60063
C700E3
C300C3
C300C3
C38183
C18183
C1C383
C0C303
C0E703
C06603
C07E03
C07C03
C03C03
C03C03
C01803
ENDCHAR
STARTCHAR 004E
ENCODING 78
SWIDTH 752 0
DWIDTH 23 0
BBX 18 23 2 0
BITMAP
E000C0
F000C0
F800C0
D800C0
DC00C0
CE00C0
C600C0
C700C0
C380C0
C180C0
C1C0C0
C0E0C0
C060C0
C030C0
C038C0
C01CC0
C00CC0
C00EC0
C007C0
C003C0
C003C0
C001C0
C000C0
ENDCHAR
STARTCHAR 004F
ENCODING 79
SWIDTH 883 0
DWIDTH 27 0
BBX 24 23 1 0
BITMAP
007F00
03FFC0
0781F0
1E0078
18001C
30000C
70000E
600006
E00007
C00003
C00003
C00003
C00003
C00003
E00003
600006
700006
30000C
1C001C
1E0078
0781F0
03FFC0
007E00
ENDCHAR
STARTCHAR 0050
ENCODING 80
SWIDTH 589 0
DWIDTH 18 0
BBX 15 23 2 0
BITMAP
FFE0
FFF0
C03C
C01C
C00E
C006
C006
C006
C006
C00E
C00C
C03C
FFF0
FFC0
C000
C000
C000
C000
C000
C000
C000
C000
C000
ENDCHAR
STARTCHAR 0051
ENCODING 81
SWIDTH 883 0
DWIDTH 27 0
BBX 24 23 1 0
BITMAP
007F00
03FFC0
0781F0
0E0078
1C001C
38000C
70000E
600006
600007
C00003
C00003
C00003
C00003
C00003
FFF003
7FFC07
701F06
3003CE
3801FC
1E0078
0F81FC
03FFDF
00FF07
ENDCHAR
STARTCHAR 0052
ENCODING 82
SWIDTH 621 0
DWIDTH 19 0
BBX 15 23 2 0
BITMAP
FFC0
FFF0
C038
C01C
C00E
C006
C006
C006
C006
C00E
C00C
C03C
C7F8
C7E0
C380
C1C0
C1C0
C0E0
C070
C030
C038
C01C
C00C
ENDCHAR
STARTCHAR 0053
ENCODING 83
SWIDTH 490 0
DWIDTH 15 0
BBX 14 23 0 0
BITMAP
07C0
1FF0
3878
3018
600C
600C
6000
7000
3800
3E00
1FC0
03F0
0078
0018
001C
000C
E00C
600C
600C
7018
3878
1FF0
07C0
ENDCHAR
STARTCHAR 0054
ENCODING 84
SWIDTH 425 0
DWIDTH 13 0
BBX 12 23 0 0
BITMAP
FFF0
FFF0
0600
0600
0600
0600
0600
0600
0600
0600
0600
0600
0600
0600
0600
0600
0600
0600
0600
0600
0600
0600
0600
ENDCHAR
STARTCHAR 0055
ENCODING 85
SWIDTH 654 0
DWIDTH 20 0
BBX 16 23 2 0
BITMAP
C003
C003
C003
C003
C003
C003
C003
C003
C003
C003
C003
C003
C003
C003
C003
C003
C003
E007
6006
700E
3C3C
1FF8
07E0
ENDCHAR
STARTCHAR 0056
ENCODING 86
SWIDTH 687 0
DWIDTH 21 0
BBX 21 23 0 0
BITMAP
E00038
600030
700030
700070
300060
3800E0
1800C0
1C00C0
1C01C0
0C0180
0E0380
060300
070300
030600
030600
038E00
018C00
01CC00
00D800
00D800
00F800
007000
007000
ENDCHAR
STARTCHAR 0057
ENCODING 87
SWIDTH 949 0
DWIDTH 29 0
BBX 29 23 0 0
BITMAP
E0070018
60070038
60070030
70078030
300F8070
300D8060
300D8060
380CC060
1818C0E0
1818C0C0
1C18E0C0
0C1860C0
0C306180
0C306180
0E307180
06703380
06603300
06603300
07603B00
03E01F00
03C01E00
03C01E00
01C01E00
ENDCHAR
STARTCHAR 0058
ENCODING 88
SWIDTH 621 0
DWIDTH 19 0
BBX 18 23 0 0
BITMAP
600180
700380
380700
180600
1C0E00
0E1C00
061800
073800
03F000
03E000
01E000
01E000
01E000
03F000
033000
071800
0E1C00
0C0C00
1C0E00
380700
300300
700380
E001C0
ENDCHAR
STARTCHAR 0059
ENCODING 89
SWIDTH 589 0
DWIDTH 18 0
BBX 18 23 0 0
BITMAP
E001C0
600180
700380
300300
380700
180600
1C0E00
0C0C00
0E1C00
061800
073000
033000
03E000
01E000
01C000
00C000
00C000
00C000
00C000
00C000
00C000
00C000
00C000
ENDCHAR
STARTCHAR 005A
ENCODING 90
SWIDTH 490 0
DWIDTH 15 0
BBX 14 23 0 0
BITMAP
FFFC
FFFC
001C
0018
0038
0070
0060
00E0
00C0
0180
0380
0300
0700
0E00
0C00
1C00
1800
3800
7000
6000
E000
FFFC
FFFC
ENDCHAR
STARTCHAR 005B
ENCODING 91
SWIDTH 360 0
DWIDTH 11 0
BBX 6 29 4 -6
BITMAP
04
1C
3C
70
60
E0
C0
C0
C0
C0
C0
C0
C0
C0
C0
C0
C0
C0
C0
C0
C0
C0
C0
E0
60
70
3C
1C
04
ENDCHAR
STARTCHAR 005C
ENCODING 92
SWIDTH 589 0
DWIDTH 18 0
BBX 11 26 4 -4
BITMAP
E000
E000
6000
7000
7000
3000
3800
3800
1800
1C00
1C00
0C00
0E00
0E00
0600
0700
0700
0300
0380
0380
0180
0180
01C0
00C0
00C0
00E0
ENDCHAR
STARTCHAR 005D
ENCODING 93
SWIDTH 360 0
DWIDTH 11 0
BBX 6 29 0 -6
BITMAP
C0
E0
70
38
18
1C
0C
0C
0C
0C
0C
0C
0C
0C
0C
0C
0C
0C
0C
0C
0C
0C
0C
0C
18
38
70
E0
80
ENDCHAR
STARTCHAR 005E
ENCODING 94
SWIDTH 621 0
DWIDTH 19 0
BBX 15 13 2 9
BITMAP
0380
0380
06C0
06C0
0C60
0C60
1830
1830
3038
3018
701C
600C
E00E
ENDCHAR
STARTCHAR 005F
ENCODING 95
SWIDTH 490 0
DWIDTH 15 0
BBX 15 2 0 -4
BITMAP
FFFE
FFFE
ENDCHAR
STARTCHAR 0060
ENCODING 96
SWIDTH 392 0
DWIDTH 12 0
BBX 7 5 2 19
BITMAP
40
F0
7C
1E
04
ENDCHAR
STARTCHAR 0061
ENCODING 97
SWIDTH 687 0
DWIDTH 21 0
BBX 18 17 1 0
BITMAP
03F0C0
0FFCC0
1C0EC0
3807C0
7003C0
6001C0
C000C0
C000C0
C000C0
C000C0
C000C0
6001C0
7001C0
3803C0
1C0EC0
0FFCC0
03F0C0
ENDCHAR
STARTCHAR 0062
ENCODING 98
SWIDTH 687 0
DWIDTH 21 0
BBX 18 23 2 0
BITMAP
C00000
C00000
C00000
C00000
C00000
C00000
C3F000
CFFC00
DC0E00
F80700
F00380
E00180
C000C0
C000C0
C000C0
C000C0
E000C0
E00180
F00180
F80300
DC0E00
CFFC00
C3F000
ENDCHAR
STARTCHAR 0063
ENCODING 99
SWIDTH 654 0
DWIDTH 20 0
BBX 17 17 1 0
BITMAP
03F000
0FFC00
1C0E00
380700
700380
600000
C00000
C00000
C00000
C00000
E00000
600000
700180
380300
1C0E00
0FFC00
03F000
ENDCHAR
STARTCHAR 0064
ENCODING 100
SWIDTH 687 0
DWIDTH 21 0
BBX 18 23 1 0
BITMAP
0000C0
0000C0
0000C0
0000C0
0000C0
0000C0
03F0C0
0FFCC0
1C0EC0
3807C0
7003C0
6001C0
C000C0
C000C0
C000C0
C000C0
C000C0
6001C0
7001C0
3803C0
1C0EC0
0FFCC0
03F0C0
ENDCHAR
STARTCHAR 0065
ENCODING 101
SWIDTH 654 0
DWIDTH 20 0
BBX 17 17 1 0
BITMAP
03E000
0FFC00
3C1E00
300700
600300
600180
C00180
FFFF80
FFFF80
C00000
C00000
600380
600300
300600
1C1E00
0FF800
03E000
ENDCHAR
STARTCHAR 0066
ENCODING 102
SWIDTH 327 0
DWIDTH 10 0
BBX 9 23 0 0
BITMAP
0380
0F80
0E00
1C00
1800
1800
FF80
FF80
1800
1800
1800
1800
1800
1800
1800
1800
1800
1800
1800
1800
1800
1800
1800
ENDCHAR
STARTCHAR 0067
ENCODING 103
SWIDTH 687 0
DWIDTH 21 0
BBX 17 23 1 -6
BITMAP
03E180
0FF980
1C1D80
300780
700380
600380
C00180
C00180
C00180
C00180
C00180
600380
700380
380780
3C1D80
0FF980
03E180
600180
700380
380700
1C0E00
0FFC00
03F000
ENDCHAR
STARTCHAR 0068
ENCODING 104
SWIDTH 621 0
DWIDTH 19 0
BBX 15 23 2 0
BITMAP
C000
C000
C000
C000
C000
C000
C7E0
DFF0
F838
F01C
E00C
C006
C006
C006
C006
C006
C006
C006
C006
C006
C006
C006
C006
ENDCHAR
STARTCHAR 0069
ENCODING 105
SWIDTH 196 0
DWIDTH 6 0
BBX 2 23 2 0
BITMAP
C0
C0
C0
C0
00
00
C0
C0
C0
C0
C0
C0
C0
C0
C0
C0
C0
C0
C0
C0
C0
C0
C0
ENDCHAR
STARTCHAR 006A
ENCODING 106
SWIDTH 196 0
DWIDTH 6 0
BBX 5 29 -1 -6
BITMAP
18
18
18
18
00
00
18
18
18
18
18
18
18
18
18
18
18
18
18
18
18
18
18
18
18
38
70
F0
C0
ENDCHAR
STARTCHAR 006B
ENCODING 107
SWIDTH 490 0
DWIDTH 15 0
BBX 13 23 2 0
BITMAP
C000
C000
C000
C000
C000
C000
C030
C070
C0E0
C1C0
C180
C300
C700
CE00
CC00
DE00
FF00
F380
E180
C1C0
C0E0
C070
C038
ENDCHAR
STARTCHAR 006C
ENCODING 108
SWIDTH 196 0
DWIDTH 6 0
BBX 2 23 2 0
BITMAP
C0
C0
C0
C0
C0
C0
C0
C0
C0
C0
C0
C0
C0
C0
C0
C0
C0
C0
C0
C0
C0
C0
C0
ENDCHAR
STARTCHAR 006D
ENCODING 109
SWIDTH 949 0
DWIDTH 29 0
BBX 25 17 2 0
BITMAP
CF81F800
DFE3FE00
F0770F00
E03C0300
E01C0380
C0180180
C0180180
C0180180
C0180180
C0180180
C0180180
C0180180
C0180180
C0180180
C0180180
C0180180
C0180180
ENDCHAR
STARTCHAR 006E
ENCODING 110
SWIDTH 621 0
DWIDTH 19 0
BBX 15 17 2 0
BITMAP
C7E0
DFF0
F838
F01C
E00C
E006
C006
C006
C006
C006
C006
C006
C006
C006
C006
C006
C006
ENDCHAR
STARTCHAR 006F
ENCODING 111
SWIDTH 654 0
DWIDTH 20 0
BBX 18 17 1 0
BITMAP
03F000
0FFC00
1C0E00
380700
700380
600180
C000C0
C000C0
C000C0
C000C0
E000C0
600180
700180
380700
1C0E00
0FFC00
03F000
ENDCHAR
STARTCHAR 0070
ENCODING 112
SWIDTH 687 0
DWIDTH 21 0
BBX 18 23 2 -6
BITMAP
C3F000
CFFC00
DC0E00
F80700
F00380
E00180
C000C0
C000C0
C000C0
C000C0
E000C0
E00180
F00180
F80300
DC0E00
CFFC00
C3F000
C00000
C00000
C00000
C00000
C00000
C00000
ENDCHAR
STARTCHAR 0071
ENCODING 113
SWIDTH 687 0
DWIDTH 21 0
BBX 18 23 1 -6
BITMAP
03F0C0
0FFCC0
1C0EC0
3807C0
7003C0
6001C0
C000C0
C000C0
C000C0
C000C0
C000C0
6001C0
7001C0
3803C0
1C0EC0
0FFCC0
03F0C0
0000C0
0000C0
0000C0
0000C0
0000C0
0000C0
ENDCHAR
STARTCHAR 0072
ENCODING 114
SWIDTH 294 0
DWIDTH 9 0
BBX 7 17 2 0
BITMAP
CE
DE
FC
F0
E0
C0
C0
C0
C0
C0
C0
C0
C0
C0
C0
C0
C0
ENDCHAR
STARTCHAR 0073
ENCODING 115
SWIDTH 392 0
DWIDTH 12 0
BBX 10 17 1 0
BITMAP
1E00
7F00
6380
C180
C000
E000
F000
7E00
1F00
0380
01C0
00C0
C0C0
C0C0
E180
7F80
1E00
ENDCHAR
STARTCHAR 0074
ENCODING 116
SWIDTH 327 0
DWIDTH 10 0
BBX 10 23 0 0
BITMAP
0C00
0C00
0C00
0C00
0C00
0C00
FFC0
FFC0
0C00
0C00
0C00
0C00
0C00
0C00
0C00
0C00
0C00
0C00
0C00
0C00
0C00
0C00
0C00
ENDCHAR
STARTCHAR 0075
ENCODING 117
SWIDTH 621 0
DWIDTH 19 0
BBX 14 17 2 0
BITMAP
C00C
C00C
C00C
C00C
C00C
C00C
C00C
C00C
C00C
C00C
C00C
C00C
E01C
601C
787C
3FEC
0F8C
ENDCHAR
STARTCHAR 0076
ENCODING 118
SWIDTH 556 0
DWIDTH 17 0
BBX 16 17 0 0
BITMAP
C007
C006
6006
600E
700C
301C
3818
1818
1830
1C30
0C70
0E60
06E0
06C0
03C0
03C0
0380
ENDCHAR
STARTCHAR 0077
ENCODING 119
SWIDTH 818 0
DWIDTH 25 0
BBX 24 17 1 0
BITMAP
C00003
C00006
E01806
60380E
60380C
703C0C
306C1C
306C18
186E18
18C630
18C630
0CC730
0DC360
0F8360
0783E0
0781C0
0701C0
ENDCHAR
STARTCHAR 0078
ENCODING 120
SWIDTH 490 0
DWIDTH 15 0
BBX 14 17 0 0
BITMAP
E01C
7038
3030
3870
1CE0
0CC0
0FC0
0780
0300
0780
0FC0
0CC0
18E0
3870
3030
7038
E01C
ENDCHAR
STARTCHAR 0079
ENCODING 121
SWIDTH 523 0
DWIDTH 16 0
BBX 16 23 0 -6
BITMAP
E007
6006
6006
700C
300C
381C
1818
1838
1C30
0C30
0E60
0660
06E0
07C0
03C0
0380
0180
0300
0300
0700
0600
0E00
0C00
ENDCHAR
STARTCHAR 007A
ENCODING 122
SWIDTH 425 0
DWIDTH 13 0
BBX 12 17 0 0
BITMAP
FFE0
FFE0
0060
00C0
01C0
0180
0300
0700
0600
0C00
1C00
3800
3000
7000
E000
FFF0
FFF0
ENDCHAR
STARTCHAR 007B
ENCODING 123
SWIDTH 360 0
DWIDTH 11 0
BBX 8 29 2 -6
BITMAP
0F
0F
18
18
18
18
18
18
18
18
18
18
30
F0
C0
F0
38
18
18
18
18
18
18
18
18
18
1C
0F
0F
ENDCHAR
STARTCHAR 007C
ENCODING 124
SWIDTH 687 0
DWIDTH 21 0
BBX 2 31 9 -7
BITMAP
C0
C0
C0
C0
C0
C0
C0
C0
C0
C0
C0
C0
C0
C0
C0
C0
C0
C0
C0
C0
C0
C0
C0
C0
C0
C0
C0
C0
C0
C0
C0
ENDCHAR
STARTCHAR 007D
ENCODING 125
SWIDTH 360 0
DWIDTH 11 0
BBX 7 29 1 -6
BITMAP
F0
F0
38
18
18
18
18
18
18
18
18
18
1C
0E
06
0E
1C
18
18
18
18
18
18
18
18
18
38
F0
E0
ENDCHAR
STARTCHAR 007E
ENCODING 126
SWIDTH 621 0
DWIDTH 19 0
BBX 14 4 2 6
BITMAP
3C00
7F8C
C3F8
00F0
ENDCHAR
STARTCHAR 00A0
ENCODING 160
SWIDTH 261 0
DWIDTH 8 0
BBX 0 0 0 0
BITMAP
ENDCHAR
STARTCHAR 00A3
ENCODING 163
SWIDTH 556 0
DWIDTH 17 0
BBX 17 23 0 0
BITMAP
03F000
0FF800
1C1C00
380E00
300700
600300
600000
600000
600000
700000
FFF800
FFF800
0E0000
070000
030000
038180
018180
018180
018380
038300
030F00
7FFE00
7FF800
ENDCHAR
STARTCHAR 00A4
ENCODING 164
SWIDTH 556 0
DWIDTH 17 0
BBX 17 17 0 1
BITMAP
400100
E00380
73E700
3FFE00
1C1C00
180C00
300600
300600
300600
300600
380600
180C00
1C1C00
3FFE00
73E700
E00380
400100
ENDCHAR
STARTCHAR 00A6
ENCODING 166
SWIDTH 687 0
DWIDTH 21 0
BBX 2 26 9 -5
BITMAP
C0
C0
C0
C0
C0
C0
C0
C0
C0
C0
C0
00
00
00
00
C0
C0
C0
C0
C0
C0
C0
C0
C0
C0
C0
ENDCHAR
STARTCHAR 00A7
ENCODING 167
SWIDTH 621 0
DWIDTH 19 0
BBX 13 27 3 -4
BITMAP
0F80
1FE0
3870
7030
6030
6000
7000
3800
3E00
6F80
C3E0
C0F0
C038
C018
7018
7C18
1F30
07F0
01E0
0070
0030
6030
6030
7030
3860
1FE0
0F80
ENDCHAR
STARTCHAR 00A8
ENCODING 168
SWIDTH 360 0
DWIDTH 11 0
BBX 7 4 2 20
BITMAP
C6
C6
C6
C6
ENDCHAR
STARTCHAR 00A9
ENCODING 169
SWIDTH 752 0
DWIDTH 23 0
BBX 23 23 0 0
BITMAP
00FE00
03FF80
0E01E0
1C0070
387C38
30FF1C
61C30C
63018C
C70086
C60006
C60006
C60006
C60006
C60006
E30086
63018C
61C30C
30FE18
387C38
1C0070
0F00E0
03FF80
00FE00
ENDCHAR
STARTCHAR 00AB
ENCODING 171
SWIDTH 425 0
DWIDTH 13 0
BBX 11 12 1 3
BITMAP
1840
18E0
38C0
3180
6380
E300
E300
6380
31C0
38C0
18E0
1840
ENDCHAR
STARTCHAR 00AC
ENCODING 172
SWIDTH 621 0
DWIDTH 19 0
BBX 15 9 2 3
BITMAP
FFFE
FFFE
0006
0006
0006
0006
0006
0006
0006
ENDCHAR
STARTCHAR 00AD
ENCODING 173
SWIDTH 327 0
DWIDTH 10 0
BBX 8 2 1 8
BITMAP
FF
FF
ENDCHAR
STARTCHAR 00AE
ENCODING 174
SWIDTH 752 0
DWIDTH 23 0
BBX 23 23 0 0
BITMAP
00FE00
03FF80
0E01E0
1C0070
3BFE38
33FF18
63038C
63018C
C30186
C30186
C30386
C3FE06
C3FF06
C30386
C30186
63018C
63018C
330198
380038
1C0070
0F00E0
03FF80
00FE00
ENDCHAR
STARTCHAR 00B0
ENCODING 176
SWIDTH 392 0
DWIDTH 12 0
BBX 9 9 2 13
BITMAP
3E00
7F00
E380
C180
C180
C180
E380
7F00
3E00
ENDCHAR
STARTCHAR 00B1
ENCODING 177
SWIDTH 621 0
DWIDTH 19 0
BBX 16 17 1 -1
BITMAP
0180
0180
0180
0180
0180
0180
FFFF
FFFF
0180
0180
0180
0180
0180
0000
0000
FFFF
FFFF
ENDCHAR
STARTCHAR 00B4
ENCODING 180
SWIDTH 360 0
DWIDTH 11 0
BBX 7 5 2 20
BITMAP
04
1E
7C
F0
40
ENDCHAR
STARTCHAR 00B5
ENCODING 181
SWIDTH 621 0
DWIDTH 19 0
BBX 13 22 3 -6
BITMAP
C018
C018
C018
C018
C018
C018
C018
C018
C018
C018
C018
C018
E038
E038
F078
DFD8
CF98
C000
C000
C000
C000
C000
ENDCHAR
STARTCHAR 00B6
ENCODING 182
SWIDTH 556 0
DWIDTH 17 0
BBX 17 26 0 -4
BITMAP
0FFF80
3FFF80
7F8600
7F8600
FF8600
FF8600
FF8600
FF8600
7F8600
7F8600
3F8600
1F8600
018600
018600
018600
018600
018600
018600
018600
018600
018600
018600
018600
018600
018600
018600
ENDCHAR
STARTCHAR 00B7
ENCODING 183
SWIDTH 261 0
DWIDTH 8 0
BBX 2 4 3 6
BITMAP
C0
C0
C0
C0
ENDCHAR
STARTCHAR 00B8
ENCODING 184
SWIDTH 327 0
DWIDTH 10 0
BBX 5 7 3 -7
BITMAP
60
40
F0
08
08
D8
70
ENDCHAR
STARTCHAR 00BB
ENCODING 187
SWIDTH 425 0
DWIDTH 13 0
BBX 11 12 1 3
BITMAP
4300
E300
6380
71C0
38C0
18E0
18E0
38C0
7180
6380
E300
4300
ENDCHAR
STARTCHAR 00C1
ENCODING 193
SWIDTH 752 0
DWIDTH 23 0
BBX 22 29 0 1
BITMAP
000C00
003E00
00F800
00E000
000000
000000
007000
007800
007800
00FC00
00CC00
01CE00
018600
018600
030700
030300
070380
060180
0E01C0
0FFFC0
0FFFC0
1800E0
180060
380070
300030
700038
600038
600018
E0001C
ENDCHAR
STARTCHAR 00C2
ENCODING 194
SWIDTH 752 0
DWIDTH 23 0
BBX 22 29 0 0
BITMAP
007800
00FC00
01CE00
038700
000000
000000
007000
007800
007800
00FC00
00CC00
01CE00
018600
018600
030700
030300
070380
060180
0E01C0
0FFFC0
0FFFC0
1800E0
180060
380070
300030
700038
600038
600018
E0001C
ENDCHAR
STARTCHAR 00C4
ENCODING 196
SWIDTH 752 0
DWIDTH 23 0
BBX 21 29 1 0
BITMAP
018C00
018C00
018C00
018C00
000000
000000
007000
00F800
00F800
01D800
01DC00
018C00
038E00
030600
070700
060700
060300
0C0380
0C0180
1FFFC0
1FFFC0
3800C0
3000E0
300060
700070
600030
E00038
C00038
C00018
ENDCHAR
STARTCHAR 00C7
ENCODING 199
SWIDTH 818 0
DWIDTH 25 0
BBX 23 30 1 -7
BITMAP
007F00
03FFC0
0781F0
1E0078
1C001C
38000E
700000
600000
E00000
C00000
C00000
C00000
C00000
C00000
E00000
600000
700000
38000C
1C001C
1E0038
07C1F0
03FFC0
007F00
001000
003000
003C00
000200
000200
002600
001C00
ENDCHAR
STARTCHAR 00C9
ENCODING 201
SWIDTH 523 0
DWIDTH 16 0
BBX 12 29 2 1
BITMAP
0180
0780
1F00
1C00
1000
0000
FFF0
FFF0
C000
C000
C000
C000
C000
C000
C000
C000
FFF0
FFF0
C000
C000
C000
C000
C000
C000
C000
C000
C000
FFF0
FFF0
ENDCHAR
STARTCHAR 00CB
ENCODING 203
SWIDTH 523 0
DWIDTH 16 0
BBX 12 29 2 0
BITMAP
1980
1980
1980
1980
0000
0000
FFF0
FFF0
C000
C000
C000
C000
C000
C000
C000
C000
FFF0
FFF0
C000
C000
C000
C000
C000
C000
C000
C000
C000
FFF0
FFF0
ENDCHAR
STARTCHAR 00CD
ENCODING 205
SWIDTH 229 0
DWIDTH 7 0
BBX 7 29 1 1
BITMAP
0C
3E
78
E0
00
00
60
60
60
60
60
60
60
60
60
60
60
60
60
60
60
60
60
60
60
60
60
60
60
ENDCHAR
STARTCHAR 00CE
ENCODING 206
SWIDTH 229 0
DWIDTH 7 0
BBX 10 29 -2 0
BITMAP
0E00
3F00
7380
E1C0
0000
0000
0C00
0C00
0C00
0C00
0C00
0C00
0C00
0C00
0C00
0C00
0C00
0C00
0C00
0C00
0C00
0C00
0C00
0C00
0C00
0C00
0C00
0C00
0C00
ENDCHAR
STARTCHAR 00D3
ENCODING 211
SWIDTH 883 0
DWIDTH 27 0
BBX 24 29 1 1
BITMAP
000100
000780
001F00
003C00
001000
000000
007F00
03FFC0
0781F0
1E0078
18001C
30000C
70000E
600006
E00007
C00003
C00003
C00003
C00003
C00003
E00003
600006
700006
30000C
1C001C
1E0078
0781F0
03FFC0
007E00
ENDCHAR
STARTCHAR 00D4
ENCODING 212
SWIDTH 883 0
DWIDTH 27 0
BBX 24 29 1 0
BITMAP
001C00
007E00
00E700
01C380
000000
000000
007F00
03FFC0
0781F0
1E0078
18001C
30000C
70000E
600006
E00007
C00003
C00003
C00003
C00003
C00003
E00003
600006
700006
30000C
1C001C
1E0078
0781F0
03FFC0
007E00
ENDCHAR
STARTCHAR 00D5
ENCODING 213
SWIDTH 883 0
DWIDTH 27 0
BBX 24 28 1 0
BITMAP
00F080
01FF80
010F00
000000
000000
007F00
03FFC0
0781F0
1E0078
18001C
30000C
70000E
600006
E00007
C00003
C00003
C00003
C00003
C00003
E00003
600006
700006
30000C
1C001C
1E0078
0781F0
03FFC0
007E00
ENDCHAR
STARTCHAR 00D6
ENCODING 214
SWIDTH 883 0
DWIDTH 27 0
BBX 24 29 1 0
BITMAP
006600
006600
006600
006600
000000
000000
007F00
03FFC0
0781F0
1E0078
18001C
30000C
70000E
600006
E00007
C00003
C00003
C00003
C00003
C00003
E00003
600006
700006
30000C
1C001C
1E0078
0781F0
03FFC0
007E00
ENDCHAR
STARTCHAR 00D7
ENCODING 215
SWIDTH 621 0
DWIDTH 19 0
BBX 14 14 2 1
BITMAP
4008
E01C
7038
3870
1CE0
0FC0
0780
0780
0FC0
1CE0
3870
7038
E01C
4008
ENDCHAR
STARTCHAR 00DA
ENCODING 218
SWIDTH 654 0
DWIDTH 20 0
BBX 16 29 2 1
BITMAP
0030
00F0
03C0
0700
0200
0000
C003
C003
C003
C003
C003
C003
C003
C003
C003
C003
C003
C003
C003
C003
C003
C003
C003
E007
6006
700E
3C3C
1FF8
07E0
ENDCHAR
STARTCHAR 00DC
ENCODING 220
SWIDTH 654 0
DWIDTH 20 0
BBX 16 29 2 0
BITMAP
0660
0660
0660
0660
0000
0000
C003
C003
C003
C003
C003
C003
C003
C003
C003
C003
C003
C003
C003
C003
C003
C003
C003
E007
6006
700E
3C3C
1FF8
07E0
ENDCHAR
STARTCHAR 00DD
ENCODING 221
SWIDTH 589 0
DWIDTH 18 0
BBX 18 29 0 1
BITMAP
001800
007800
01E000
018000
010000
000000
E001C0
600180
700380
300300
380700
180600
1C0E00
0C0C00
0E1C00
061800
073000
033000
03E000
01E000
01C000
00C000
00C000
00C000
00C000
00C000
00C000
00C000
00C000
ENDCHAR
STARTCHAR 00DF
ENCODING 223
SWIDTH 556 0
DWIDTH 17 0
BBX 14 23 2 0
BITMAP
0F80
3FC0
70E0
E070
C030
C030
C030
C030
C070
C0E0
C7C0
C7E0
C078
C018
C01C
C00C
C00C
F00C
F00C
F018
DC38
DFF0
C7C0
ENDCHAR
STARTCHAR 00E1
ENCODING 225
SWIDTH 687 0
DWIDTH 21 0
BBX 18 24 1 0
BITMAP
001000
007800
00F000
03C000
030000
000000
000000
03F0C0
0FFCC0
1C0EC0
3807C0
7003C0
6001C0
C000C0
C000C0
C000C0
C000C0
C000C0
6001C0
7001C0
3803C0
1C0EC0
0FFCC0
03F0C0
ENDCHAR
STARTCHAR 00E2
ENCODING 226
SWIDTH 687 0
DWIDTH 21 0
BBX 18 24 1 0
BITMAP
00E000
01F000
073800
0E1C00
000000
000000
000000
03F0C0
0FFCC0
1C0EC0
3807C0
7003C0
6001C0
C000C0
C000C0
C000C0
C000C0
C000C0
6001C0
7001C0
3803C0
1C0EC0
0FFCC0
03F0C0
ENDCHAR
STARTCHAR 00E4
ENCODING 228
SWIDTH 687 0
DWIDTH 21 0
BBX 18 24 1 0
BITMAP
031800
031800
031800
031800
000000
000000
000000
03F0C0
0FFCC0
1C0EC0
3803C0
7003C0
6001C0
C000C0
C000C0
C000C0
C000C0
C000C0
6001C0
7001C0
3803C0
1C0EC0
0FFCC0
03F0C0
ENDCHAR
STARTCHAR 00E7
ENCODING 231
SWIDTH 654 0
DWIDTH 20 0
BBX 17 24 1 -7
BITMAP
03F000
0FFE00
1C0F00
380380
700180
600000
C00000
C00000
C00000
C00000
E00000
600000
700180
380380
1C0F00
0FFE00
03F800
008000
008000
01E000
001000
001000
01B000
00E000
ENDCHAR
STARTCHAR 00E9
ENCODING 233
SWIDTH 654 0
DWIDTH 20 0
BBX 17 24 1 0
BITMAP
003000
007000
01E000
078000
030000
000000
000000
03E000
0FFC00
3C1E00
300700
600300
600180
C00180
FFFF80
FFFF80
C00000
C00000
600380
600300
300600
1C1E00
0FF800
03E000
ENDCHAR
STARTCHAR 00EB
ENCODING 235
SWIDTH 654 0
DWIDTH 20 0
BBX 17 24 1 0
BITMAP
033000
033000
033000
033000
000000
000000
000000
03F000
0FFC00
1C0E00
300700
600300
600180
C00180
FFFF80
FFFF80
C00000
C00000
600180
700300
380700
1C0E00
0FFC00
03F000
ENDCHAR
STARTCHAR 00ED
ENCODING 237
SWIDTH 196 0
DWIDTH 6 0
BBX 7 24 1 1
BITMAP
0E
1E
78
E0
00
00
00
60
60
60
60
60
60
60
60
60
60
60
60
60
60
60
60
60
ENDCHAR
STARTCHAR 00EE
ENCODING 238
SWIDTH 196 0
DWIDTH 6 0
BBX 10 24 -2 0
BITMAP
0E00
3F00
7380
E1C0
0000
0000
0000
0C00
0C00
0C00
0C00
0C00
0C00
0C00
0C00
0C00
0C00
0C00
0C00
0C00
0C00
0C00
0C00
0C00
ENDCHAR
STARTCHAR 00F3
ENCODING 243
SWIDTH 654 0
DWIDTH 20 0
BBX 18 24 1 0
BITMAP
000800
003C00
00F800
01E000
018000
000000
000000
03F000
0FFC00
1C0E00
380700
700380
600180
C000C0
C000C0
C000C0
C000C0
E000C0
600180
700180
380700
1C0E00
0FFC00
03F000
ENDCHAR
STARTCHAR 00F4
ENCODING 244
SWIDTH 654 0
DWIDTH 20 0
BBX 18 24 1 0
BITMAP
01E000
03F000
073800
0E1C00
000000
000000
000000
03F000
0FFC00
1C0E00
380700
700380
600180
C000C0
C000C0
C000C0
C000C0
E000C0
600180
700180
380700
1C0E00
0FFC00
03F000
ENDCHAR
STARTCHAR 00F5
ENCODING 245
SWIDTH 654 0
DWIDTH 20 0
BBX 18 23 1 0
BITMAP
078400
0FFC00
087800
000000
000000
000000
03F000
0FFC00
1C0E00
380700
700380
600180
C000C0
C000C0
C000C0
C000C0
E000C0
600180
700180
380700
1C0E00
0FFC00
03F000
ENDCHAR
STARTCHAR 00F6
ENCODING 246
SWIDTH 654 0
DWIDTH 20 0
BBX 18 24 1 0
BITMAP
033000
033000
033000
033000
000000
000000
000000
03F000
0FFC00
1C0E00
380700
700380
600180
C000C0
C000C0
C000C0
C000C0
E000C0
600180
700180
380700
1C0E00
0FFC00
03F000
ENDCHAR
STARTCHAR 00F7
ENCODING 247
SWIDTH 621 0
DWIDTH 19 0
BBX 16 16 1 0
BITMAP
0180
0180
0180
0180
0000
0000
0000
FFFF
FFFF
0000
0000
0000
0180
0180
0180
0180
ENDCHAR
STARTCHAR 00FA
ENCODING 250
SWIDTH 621 0
DWIDTH 19 0
BBX 14 24 2 1
BITMAP
0060
01E0
0780
0700
0400
0000
0000
C00C
C00C
C00C
C00C
C00C
C00C
C00C
C00C
C00C
C00C
C00C
C00C
E01C
601C
787C
3FEC
0F8C
ENDCHAR
STARTCHAR 00FC
ENCODING 252
SWIDTH 621 0
DWIDTH 19 0
BBX 14 24 2 0
BITMAP
0CC0
0CC0
0CC0
0CC0
0000
0000
0000
C00C
C00C
C00C
C00C
C00C
C00C
C00C
C00C
C00C
C00C
C00C
C00C
E01C
601C
787C
3FEC
0F8C
ENDCHAR
STARTCHAR 00FD
ENCODING 253
SWIDTH 523 0
DWIDTH 16 0
BBX 16 30 0 -5
BITMAP
0030
00F0
03C0
0780
0200
0000
0000
E007
6006
6006
700C
300C
381C
1818
1838
1C30
0C30
0E60
0660
06E0
07C0
03C0
0380
0180
0300
0300
0700
0600
0E00
0C00
ENDCHAR
STARTCHAR 0100
ENCODING 256
SWIDTH 752 0
DWIDTH 23 0
BBX 22 28 0 0
BITMAP
03FF00
03FF00
000000
000000
000000
007000
007800
007800
00FC00
00CC00
01CE00
018600
018600
030700
030300
070380
060180
0E01C0
0FFFC0
0FFFC0
1800E0
180060
380070
300030
700038
600038
600018
E0001C
ENDCHAR
STARTCHAR 0101
ENCODING 257
SWIDTH 687 0
DWIDTH 21 0
BBX 18 23 1 0
BITMAP
0FFE00
0FFE00
000000
000000
000000
000000
03F0C0
0FFCC0
1C0EC0
3807C0
7003C0
6001C0
C000C0
C000C0
C000C0
C000C0
C000C0
6001C0
7001C0
3803C0
1C0EC0
0FFCC0
03F0C0
ENDCHAR
STARTCHAR 0102
ENCODING 258
SWIDTH 752 0
DWIDTH 23 0
BBX 22 28 0 1
BITMAP
038700
01FE00
00F800
000000
000000
007000
007800
007800
00FC00
00CC00
01CE00
018600
018600
030700
030300
070380
060180
0E01C0
0FFFC0
0FFFC0
1800E0
180060
380070
300030
700038
600038
600018
E0001C
ENDCHAR
STARTCHAR 0103
ENCODING 259
SWIDTH 687 0
DWIDTH 21 0
BBX 18 23 1 0
BITMAP
0E0E00
07FC00
01F000
000000
000000
000000
03F0C0
0FFCC0
1C0EC0
3807C0
7003C0
6001C0
C000C0
C000C0
C000C0
C000C0
C000C0
6001C0
7001C0
3803C0
1C0EC0
0FFCC0
03F0C0
ENDCHAR
STARTCHAR 0104
ENCODING 260
SWIDTH 752 0
DWIDTH 23 0
BBX 22 29 1 -6
BITMAP
007000
00F000
00F800
00D800
019800
019C00
038C00
030E00
070600
060700
060300
0C0380
0C0380
1FFF80
1FFFC0
3800C0
3000E0
300060
700070
600070
E00030
C00038
C00018
000010
000020
000060
000060
000034
00001C
ENDCHAR
STARTCHAR 0105
ENCODING 261
SWIDTH 687 0
DWIDTH 21 0
BBX 18 23 1 -6
BITMAP
03F0C0
0FFCC0
1C0EC0
3803C0
7003C0
6001C0
C000C0
C000C0
C000C0
C000C0
C000C0
6001C0
7001C0
3803C0
1C0EC0
0FFCC0
03F0C0
000180
000300
000300
000300
0003C0
0001C0
ENDCHAR
STARTCHAR 0106
ENCODING 262
SWIDTH 818 0
DWIDTH 25 0
BBX 22 29 1 1
BITMAP
000300
000700
001E00
003800
003000
000000
00FE00
03FFC0
0F83E0
1E0070
380038
30001C
700000
600000
E00000
C00000
C00000
C00000
C00000
C00000
E00000
600000
700000
30001C
3C0038
1E0070
0F81E0
03FF80
00FE00
ENDCHAR
STARTCHAR 0107
ENCODING 263
SWIDTH 654 0
DWIDTH 20 0
BBX 17 24 1 0
BITMAP
003000
007000
01E000
078000
030000
000000
000000
03F000
0FFC00
1C0E00
380700
700380
600000
C00000
C00000
C00000
C00000
E00000
600000
700180
380300
1C0E00
0FFC00
03F000
ENDCHAR
STARTCHAR 010C
ENCODING 268
SWIDTH 818 0
DWIDTH 25 0
BBX 22 29 1 0
BITMAP
01C380
00E700
007E00
003C00
000000
000000
00FE00
03FFC0
0F83E0
1E0070
380038
30001C
700000
600000
E00000
C00000
C00000
C00000
C00000
C00000
E00000
600000
700000
30001C
3C0038
1E0070
0F81E0
03FF80
00FE00
ENDCHAR
STARTCHAR 010D
ENCODING 269
SWIDTH 654 0
DWIDTH 20 0
BBX 17 24 1 0
BITMAP
0C1800
077000
03E000
01C000
000000
000000
000000
03F000
0FFC00
1C0E00
380700
700380
600000
C00000
C00000
C00000
C00000
E00000
600000
700180
380300
1C0E00
0FFC00
03F000
ENDCHAR
STARTCHAR 010E
ENCODING 270
SWIDTH 752 0
DWIDTH 23 0
BBX 19 29 2 0
BITMAP
387000
1CE000
0FC000
078000
000000
000000
FFE000
FFF800
C03E00
C00F00
C00380
C001C0
C000C0
C000C0
C00060
C00060
C00060
C00060
C00060
C00060
C00060
C000C0
C000C0
C00180
C00380
C00700
C03E00
FFF800
FFE000
ENDCHAR
STARTCHAR 010F
ENCODING 271
SWIDTH 752 0
DWIDTH 23 0
BBX 23 23 1 0
BITMAP
0000C6
0000C6
0000CC
0000CC
0000D8
0000C0
03F0C0
0FFCC0
1C0EC0
3807C0
7003C0
6001C0
C000C0
C000C0
C000C0
C000C0
C000C0
6001C0
7001C0
3803C0
1C0EC0
0FFCC0
03F0C0
ENDCHAR
STARTCHAR 0110
ENCODING 272
SWIDTH 785 0
DWIDTH 24 0
BBX 20 23 2 0
BITMAP
3FF000
3FFE00
301F00
300380
3001C0
3000E0
300060
300070
300030
300030
FFC030
FFC030
300030
300030
300030
300060
300060
3000E0
3001C0
300380
300F00
3FFE00
3FF000
ENDCHAR
STARTCHAR 0111
ENCODING 273
SWIDTH 687 0
DWIDTH 21 0
BBX 20 23 1 0
BITMAP
0000C0
0000C0
0000C0
000FF0
000FF0
0000C0
03F0C0
0FFCC0
1C0EC0
3807C0
7003C0
6001C0
C000C0
C000C0
C000C0
C000C0
C000C0
6001C0
7001C0
3803C0
1C0EC0
0FFCC0
03F0C0
ENDCHAR
STARTCHAR 0112
ENCODING 274
SWIDTH 523 0
DWIDTH 16 0
BBX 12 28 2 0
BITMAP
7FE0
7FE0
0000
0000
0000
FFF0
FFF0
C000
C000
C000
C000
C000
C000
C000
C000
FFF0
FFF0
C000
C000
C000
C000
C000
C000
C000
C000
C000
FFF0
FFF0
ENDCHAR
STARTCHAR 0113
ENCODING 275
SWIDTH 654 0
DWIDTH 20 0
BBX 17 23 1 0
BITMAP
1FFC00
1FFC00
000000
000000
000000
000000
03E000
0FFC00
3C1E00
300700
600300
600180
C00180
FFFF80
FFFF80
C00000
C00000
600380
600300
300600
1C1E00
0FF800
03E000
ENDCHAR
STARTCHAR 0116
ENCODING 278
SWIDTH 523 0
DWIDTH 16 0
BBX 12 29 2 0
BITMAP
0600
0600
0600
0600
0000
0000
FFF0
FFF0
C000
C000
C000
C000
C000
C000
C000
C000
FFF0
FFF0
C000
C000
C000
C000
C000
C000
C000
C000
C000
FFF0
FFF0
ENDCHAR
STARTCHAR 0117
ENCODING 279
SWIDTH 654 0
DWIDTH 20 0
BBX 18 24 1 0
BITMAP
00C000
00C000
00C000
00C000
000000
000000
000000
03F000
0FFC00
1C0E00
300700
600380
600180
C00180
FFFFC0
FFFFC0
C00000
C00000
600180
700300
380700
1C0E00
0FFC00
03F000
ENDCHAR
STARTCHAR 0118
ENCODING 280
SWIDTH 523 0
DWIDTH 16 0
BBX 13 29 2 -6
BITMAP
FFF8
FFF8
C000
C000
C000
C000
C000
C000
C000
C000
FFF8
FFF8
C000
C000
C000
C000
C000
C000
C000
C000
C000
FFF8
FFF8
0030
0040
00C0
00C0
00E8
0078
ENDCHAR
STARTCHAR 0119
ENCODING 281
SWIDTH 654 0
DWIDTH 20 0
BBX 18 23 1 -6
BITMAP
03F000
0FFC00
1C0E00
300700
600380
600180
C001C0
FFFFC0
FFFFC0
C00000
C00000
600180
700380
380700
1C0E00
0FFC00
03F000
00E000
00C000
018000
018000
00D000
007000
ENDCHAR
STARTCHAR 011A
ENCODING 282
SWIDTH 523 0
DWIDTH 16 0
BBX 12 29 2 0
BITMAP
70E0
39C0
1F00
0E00
0000
0000
FFF0
FFF0
C000
C000
C000
C000
C000
C000
C000
C000
FFF0
FFF0
C000
C000
C000
C000
C000
C000
C000
C000
C000
FFF0
FFF0
ENDCHAR
STARTCHAR 011B
ENCODING 283
SWIDTH 654 0
DWIDTH 20 0
BBX 17 24 1 0
BITMAP
0C1800
067000
03E000
01C000
000000
000000
000000
03E000
0FFC00
3C1E00
300700
600300
600180
C00180
FFFF80
FFFF80
C00000
C00000
600380
600300
300600
1C1E00
0FF800
03E000
ENDCHAR
STARTCHAR 0122
ENCODING 290
SWIDTH 883 0
DWIDTH 27 0
BBX 24 30 1 -7
BITMAP
007F00
03FFC0
0781E0
0E0078
1C0038
38001C
70000E
600000
600000
E00000
C00000
C00000
C00000
C07FFF
E07FFF
600006
700006
30000C
38001C
1E0078
0F81F0
03FFC0
00FE00
000000
000000
001800
001800
003000
003000
006000
ENDCHAR
STARTCHAR 0123
ENCODING 291
SWIDTH 687 0
DWIDTH 21 0
BBX 17 30 1 -6
BITMAP
006000
004000
00C000
00C000
018000
000000
000000
03E180
0FF980
1C1D80
300780
700380
600380
C00180
C00180
C00180
C00180
C00180
600380
700380
380780
3C1D80
0FF980
03E180
600180
700380
380700
1C0E00
0FFC00
03F000
ENDCHAR
STARTCHAR 012A
ENCODING 298
SWIDTH 229 0
DWIDTH 7 0
BBX 8 28 -1 0
BITMAP
FF
FF
00
00
00
18
18
18
18
18
18
18
18
18
18
18
18
18
18
18
18
18
18
18
18
18
18
18
ENDCHAR
STARTCHAR 012B
ENCODING 299
SWIDTH 196 0
DWIDTH 6 0
BBX 8 23 -1 0
BITMAP
FF
FF
00
00
00
00
18
18
18
18
18
18
18
18
18
18
18
18
18
18
18
18
18
ENDCHAR
STARTCHAR 012E
ENCODING 302
SWIDTH 229 0
DWIDTH 7 0
BBX 4 29 1 -6
BITMAP
60
60
60
60
60
60
60
60
60
60
60
60
60
60
60
60
60
60
60
60
60
60
60
60
C0
C0
C0
D0
70
ENDCHAR
STARTCHAR 012F
ENCODING 303
SWIDTH 196 0
DWIDTH 6 0
BBX 5 29 0 -6
BITMAP
30
30
30
30
00
00
30
30
30
30
30
30
30
30
30
30
30
30
30
30
30
30
30
60
40
C0
C0
68
78
ENDCHAR
STARTCHAR 0136
ENCODING 310
SWIDTH 589 0
DWIDTH 18 0
BBX 15 29 3 -6
BITMAP
C00E
C01C
C038
C038
C070
C0E0
C1C0
C180
C380
C700
CE00
DE00
DE00
FF00
F380
E1C0
C0C0
C0E0
C070
C038
C018
C01C
C00E
0000
0600
0600
0C00
0C00
1800
ENDCHAR
STARTCHAR 0137
ENCODING 311
SWIDTH 490 0
DWIDTH 15 0
BBX 13 29 2 -6
BITMAP
C000
C000
C000
C000
C000
C000
C030
C070
C0E0
C1C0
C180
C300
C700
CE00
CC00
DE00
FF00
F380
E180
C1C0
C0E0
C070
C038
0000
0E00
0C00
0C00
1800
1800
ENDCHAR
STARTCHAR 0139
ENCODING 313
SWIDTH 458 0
DWIDTH 14 0
BBX 11 29 3 1
BITMAP
0700
1F00
3C00
7000
0000
0000
C000
C000
C000
C000
C000
C000
C000
C000
C000
C000
C000
C000
C000
C000
C000
C000
C000
C000
C000
C000
C000
FFE0
FFE0
ENDCHAR
STARTCHAR 013A
ENCODING 314
SWIDTH 196 0
DWIDTH 6 0
BBX 6 29 1 1
BITMAP
0C
3C
F8
E0
00
00
60
60
60
60
60
60
60
60
60
60
60
60
60
60
60
60
60
60
60
60
60
60
60
ENDCHAR
STARTCHAR 013B
ENCODING 315
SWIDTH 458 0
DWIDTH 14 0
BBX 11 30 3 -7
BITMAP
C000
C000
C000
C000
C000
C000
C000
C000
C000
C000
C000
C000
C000
C000
C000
C000
C000
C000
C000
C000
C000
FFE0
FFE0
0000
0000
0C00
0C00
1800
1800
3000
ENDCHAR
STARTCHAR 013C
ENCODING 316
SWIDTH 196 0
DWIDTH 6 0
BBX 4 30 0 -7
BITMAP
30
30
30
30
30
30
30
30
30
30
30
30
30
30
30
30
30
30
30
30
30
30
30
00
00
30
30
60
60
C0
ENDCHAR
STARTCHAR 013D
ENCODING 317
SWIDTH 458 0
DWIDTH 14 0
BBX 11 23 3 0
BITMAP
C060
C0C0
C0C0
C0C0
C180
C000
C000
C000
C000
C000
C000
C000
C000
C000
C000
C000
C000
C000
C000
C000
C000
FFE0
FFE0
ENDCHAR
STARTCHAR 013E
ENCODING 318
SWIDTH 261 0
DWIDTH 8 0
BBX 7 23 2 0
BITMAP
C6
C6
CC
CC
D8
C0
C0
C0
C0
C0
C0
C0
C0
C0
C0
C0
C0
C0
C0
C0
C0
C0
C0
ENDCHAR
STARTCHAR 0141
ENCODING 321
SWIDTH 523 0
DWIDTH 16 0
BBX 14 23 2 0
BITMAP
3000
3000
3000
3000
3000
3000
3080
3180
3780
3E00
3C00
7000
F000
F000
3000
3000
3000
3000
3000
3000
3000
3FFC
3FFC
ENDCHAR
STARTCHAR 0142
ENCODING 322
SWIDTH 294 0
DWIDTH 9 0
BBX 6 23 2 0
BITMAP
30
30
30
30
30
30
30
30
3C
3C
38
F0
F0
B0
30
30
30
30
30
30
30
30
30
ENDCHAR
STARTCHAR 0143
ENCODING 323
SWIDTH 752 0
DWIDTH 23 0
BBX 18 29 2 1
BITMAP
001800
007800
01E000
01C000
010000
000000
E000C0
F000C0
F800C0
D800C0
DC00C0
CE00C0
C600C0
C700C0
C380C0
C180C0
C1C0C0
C0E0C0
C060C0
C030C0
C038C0
C01CC0
C00CC0
C00EC0
C007C0
C003C0
C003C0
C001C0
C000C0
ENDCHAR
STARTCHAR 0144
ENCODING 324
SWIDTH 621 0
DWIDTH 19 0
BBX 15 24 2 0
BITMAP
0020
00F0
03E0
0780
0600
0000
0000
C7E0
DFF0
F838
F01C
E00C
E006
C006
C006
C006
C006
C006
C006
C006
C006
C006
C006
C006
ENDCHAR
STARTCHAR 0145
ENCODING 325
SWIDTH 752 0
DWIDTH 23 0
BBX 18 29 2 -6
BITMAP
E000C0
F000C0
F800C0
D800C0
DC00C0
CE00C0
C600C0
C700C0
C380C0
C180C0
C1C0C0
C0E0C0
C060C0
C030C0
C038C0
C01CC0
C00CC0
C00EC0
C007C0
C003C0
C003C0
C001C0
C000C0
000000
00C000
00C000
018000
018000
030000
ENDCHAR
STARTCHAR 0146
ENCODING 326
SWIDTH 621 0
DWIDTH 19 0
BBX 15 23 2 -6
BITMAP
C7E0
DFF0
F838
F01C
E00C
E006
C006
C006
C006
C006
C006
C006
C006
C006
C006
C006
C006
0000
0380
0300
0700
0600
0600
ENDCHAR
STARTCHAR 0147
ENCODING 327
SWIDTH 752 0
DWIDTH 23 0
BBX 18 29 2 0
BITMAP
0E1C00
073800
03F000
01E000
000000
000000
E000C0
F000C0
F800C0
D800C0
DC00C0
CE00C0
C600C0
C700C0
C380C0
C180C0
C1C0C0
C0E0C0
C060C0
C030C0
C038C0
C01CC0
C00CC0
C00EC0
C007C0
C003C0
C003C0
C001C0
C000C0
ENDCHAR
STARTCHAR 0148
ENCODING 328
SWIDTH 621 0
DWIDTH 19 0
BBX 15 24 2 0
BITMAP
3870
1CE0
07C0
0380
0000
0000
0000
C7E0
DFF0
F838
F01C
E00C
E006
C006
C006
C006
C006
C006
C006
C006
C006
C006
C006
C006
ENDCHAR
STARTCHAR 014C
ENCODING 332
SWIDTH 883 0
DWIDTH 27 0
BBX 24 28 1 0
BITMAP
01FF80
01FF80
000000
000000
000000
007F00
03FFC0
0781F0
1E0078
18001C
30000C
70000E
600006
E00007
C00003
C00003
C00003
C00003
C00003
E00003
600006
700006
30000C
1C001C
1E0078
0781F0
03FFC0
007E00
ENDCHAR
STARTCHAR 014D
ENCODING 333
SWIDTH 654 0
DWIDTH 20 0
BBX 18 23 1 0
BITMAP
0FFC00
0FFC00
000000
000000
000000
000000
03F000
0FFC00
1C0E00
380700
700380
600180
C000C0
C000C0
C000C0
C000C0
E000C0
600180
700180
380700
1C0E00
0FFC00
03F000
ENDCHAR
STARTCHAR 0150
ENCODING 336
SWIDTH 883 0
DWIDTH 27 0
BBX 24 29 1 1
BITMAP
000410
000E70
001CE0
0071C0
006180
000000
007F00
03FFC0
0781F0
1E0078
18001C
30000C
70000E
600006
E00007
C00003
C00003
C00003
C00003
C00003
E00003
600006
700006
30000C
1C001C
1E0078
0781F0
03FFC0
007E00
ENDCHAR
STARTCHAR 0151
ENCODING 337
SWIDTH 654 0
DWIDTH 20 0
BBX 18 24 1 0
BITMAP
006100
00E380
01C700
039C00
071800
000000
000000
03F000
0FFC00
1C0E00
380700
700380
600180
C000C0
C000C0
C000C0
C000C0
E000C0
600180
700180
380700
1C0E00
0FFC00
03F000
ENDCHAR
STARTCHAR 0154
ENCODING 340
SWIDTH 621 0
DWIDTH 19 0
BBX 15 29 2 1
BITMAP
00C0
03E0
0F80
0E00
0000
0000
FFC0
FFF0
C038
C01C
C00E
C006
C006
C006
C006
C00E
C00C
C03C
C7F8
C7E0
C380
C1C0
C1C0
C0E0
C070
C030
C038
C01C
C00C
ENDCHAR
STARTCHAR 0155
ENCODING 341
SWIDTH 294 0
DWIDTH 9 0
BBX 8 24 2 0
BITMAP
02
0F
1E
78
20
00
00
CE
DE
FC
F0
E0
C0
C0
C0
C0
C0
C0
C0
C0
C0
C0
C0
C0
ENDCHAR
STARTCHAR 0156
ENCODING 342
SWIDTH 621 0
DWIDTH 19 0
BBX 15 29 2 -6
BITMAP
FFC0
FFF0
C038
C01C
C00E
C006
C006
C006
C006
C00E
C00C
C03C
C7F8
C7E0
C380
C1C0
C1C0
C0E0
C070
C030
C038
C01C
C00C
0000
0300
0300
0600
0600
0C00
ENDCHAR
STARTCHAR 0157
ENCODING 343
SWIDTH 294 0
DWIDTH 9 0
BBX 9 24 0 -7
BITMAP
3380
3780
3F00
3C00
3800
3000
3000
3000
3000
3000
3000
3000
3000
3000
3000
3000
3000
0000
0000
3000
3000
7000
6000
E000
ENDCHAR
STARTCHAR 0158
ENCODING 344
SWIDTH 621 0
DWIDTH 19 0
BBX 15 29 2 0
BITMAP
3870
1CE0
0FC0
0700
0000
0000
FFC0
FFF0
C038
C01C
C00E
C006
C006
C006
C006
C00E
C00C
C03C
C7F8
C7E0
C380
C1C0
C1C0
C0E0
C070
C030
C038
C01C
C00C
ENDCHAR
STARTCHAR 0159
ENCODING 345
SWIDTH 294 0
DWIDTH 9 0
BBX 10 24 0 0
BITMAP
E1C0
3380
1F00
0E00
0000
0000
0000
3380
3780
3F00
3C00
3800
3000
3000
3000
3000
3000
3000
3000
3000
3000
3000
3000
3000
ENDCHAR
STARTCHAR 015A
ENCODING 346
SWIDTH 490 0
DWIDTH 15 0
BBX 14 29 0 1
BITMAP
0060
01E0
07C0
0F00
0400
0000
07C0
1FF0
3878
3018
600C
600C
6000
7000
3800
3E00
1FC0
03F0
0078
0018
001C
000C
E00C
600C
600C
7018
3878
1FF0
07C0
ENDCHAR
STARTCHAR 015B
ENCODING 347
SWIDTH 392 0
DWIDTH 12 0
BBX 10 24 1 0
BITMAP
0100
0700
1E00
3C00
3000
0000
0000
1E00
7F00
6380
C180
C000
E000
F000
7E00
1F00
0380
01C0
00C0
C0C0
C0C0
E180
7F80
1E00
ENDCHAR
STARTCHAR 0160
ENCODING 352
SWIDTH 490 0
DWIDTH 15 0
BBX 14 29 0 0
BITMAP
3830
1CE0
07C0
0380
0000
0000
07C0
1FF0
3878
3018
600C
600C
6000
7000
3800
3E00
1FC0
03F0
0078
0018
001C
000C
E00C
600C
600C
7018
3878
1FF0
07C0
ENDCHAR
STARTCHAR 0161
ENCODING 353
SWIDTH 392 0
DWIDTH 12 0
BBX 10 24 1 0
BITMAP
E1C0
7700
3E00
1C00
0000
0000
0000
1E00
7F00
6380
C180
C000
E000
F000
7E00
1F00
0380
01C0
00C0
C0C0
C0C0
E180
7F80
1E00
ENDCHAR
STARTCHAR 0162
ENCODING 354
SWIDTH 425 0
DWIDTH 13 0
BBX 12 30 0 -7
BITMAP
FFF0
FFF0
0600
0600
0600
0600
0600
0600
0600
0600
0600
0600
0600
0600
0600
0600
0600
0600
0600
0600
0600
0600
0600
0000
0000
0600
0600
0C00
0C00
1800
ENDCHAR
STARTCHAR 0163
ENCODING 355
SWIDTH 327 0
DWIDTH 10 0
BBX 10 30 0 -7
BITMAP
0C00
0C00
0C00
0C00
0C00
0C00
FFC0
FFC0
0C00
0C00
0C00
0C00
0C00
0C00
0C00
0C00
0C00
0C00
0C00
0C00
0C00
0C00
0C00
0000
0000
0C00
0C00
1800
1800
3000
ENDCHAR
STARTCHAR 0164
ENCODING 356
SWIDTH 425 0
DWIDTH 13 0
BBX 12 29 0 0
BITMAP
70E0
39C0
1F80
0E00
0000
0000
FFF0
FFF0
0600
0600
0600
0600
0600
0600
0600
0600
0600
0600
0600
0600
0600
0600
0600
0600
0600
0600
0600
0600
0600
ENDCHAR
STARTCHAR 0165
ENCODING 357
SWIDTH 360 0
DWIDTH 11 0
BBX 12 24 0 0
BITMAP
0030
0C60
0C60
0CC0
0CC0
0C00
0C00
FFC0
FFC0
0C00
0C00
0C00
0C00
0C00
0C00
0C00
0C00
0C00
0C00
0C00
0C00
0C00
0C00
0C00
ENDCHAR
STARTCHAR 016A
ENCODING 362
SWIDTH 654 0
DWIDTH 20 0
BBX 16 28 2 0
BITMAP
3FFC
3FFC
0000
0000
0000
C003
C003
C003
C003
C003
C003
C003
C003
C003
C003
C003
C003
C003
C003
C003
C003
C003
E007
6006
700E
3C3C
1FF8
07E0
ENDCHAR
STARTCHAR 016B
ENCODING 363
SWIDTH 621 0
DWIDTH 19 0
BBX 14 23 2 0
BITMAP
3FF0
3FF0
0000
0000
0000
0000
C00C
C00C
C00C
C00C
C00C
C00C
C00C
C00C
C00C
C00C
C00C
C00C
E01C
601C
787C
3FEC
0F8C
ENDCHAR
STARTCHAR 016E
ENCODING 366
SWIDTH 654 0
DWIDTH 20 0
BBX 16 30 2 0
BITMAP
01C0
03E0
0630
0630
0670
07E0
01C0
C003
C003
C003
C003
C003
C003
C003
C003
C003
C003
C003
C003
C003
C003
C003
C003
C003
E007
6006
700E
3C1C
1FF8
07E0
ENDCHAR
STARTCHAR 016F
ENCODING 367
SWIDTH 621 0
DWIDTH 19 0
BBX 14 25 2 0
BITMAP
03C0
07E0
0C60
0C60
0FE0
0380
0000
0000
C00C
C00C
C00C
C00C
C00C
C00C
C00C
C00C
C00C
C00C
C00C
C00C
E01C
601C
783C
3FEC
0FCC
ENDCHAR
STARTCHAR 0170
ENCODING 368
SWIDTH 654 0
DWIDTH 20 0
BBX 16 30 2 0
BITMAP
0080
0186
038E
0738
1E70
0820
0000
C003
C003
C003
C003
C003
C003
C003
C003
C003
C003
C003
C003
C003
C003
C003
C003
C003
E007
6006
700E
3C3C
1FF8
07E0
ENDCHAR
STARTCHAR 0171
ENCODING 369
SWIDTH 621 0
DWIDTH 19 0
BBX 14 24 2 1
BITMAP
030C
073C
0E70
1CE0
18C0
0000
0000
C00C
C00C
C00C
C00C
C00C
C00C
C00C
C00C
C00C
C00C
C00C
C00C
E01C
601C
787C
3FEC
0F8C
ENDCHAR
STARTCHAR 0172
ENCODING 370
SWIDTH 654 0
DWIDTH 20 0
BBX 16 29 2 -6
BITMAP
C003
C003
C003
C003
C003
C003
C003
C003
C003
C003
C003
C003
C003
C003
C003
C003
C003
E007
6006
700E
3C3C
1FF8
07F0
01C0
0180
0300
0300
0180
00E0
ENDCHAR
STARTCHAR 0173
ENCODING 371
SWIDTH 621 0
DWIDTH 19 0
BBX 15 23 2 -6
BITMAP
C00C
C00C
C00C
C00C
C00C
C00C
C00C
C00C
C00C
C00C
C00C
C00C
E01C
601C
787C
3FEC
0F8C
0018
0010
0030
0030
001A
001E
ENDCHAR
STARTCHAR 0179
ENCODING 377
SWIDTH 490 0
DWIDTH 15 0
BBX 14 29 0 1
BITMAP
00C0
03E0
0F80
0E00
0000
0000
FFFC
FFFC
001C
0038
0038
0070
0060
00E0
01C0
0180
0380
0300
0700
0E00
0C00
1C00
1800
3800
7000
6000
E000
FFFC
FFFC
ENDCHAR
STARTCHAR 017A
ENCODING 378
SWIDTH 425 0
DWIDTH 13 0
BBX 12 24 0 1
BITMAP
0180
07C0
0F00
1C00
0000
0000
0000
FFE0
FFE0
0060
00C0
01C0
0180
0300
0700
0600
0C00
1C00
3800
3000
7000
E000
FFF0
FFF0
ENDCHAR
STARTCHAR 017B
ENCODING 379
SWIDTH 490 0
DWIDTH 15 0
BBX 14 29 0 0
BITMAP
0300
0300
0300
0300
0000
0000
FFFC
FFFC
0018
0038
0030
0070
0060
00E0
01C0
0180
0380
0300
0700
0600
0C00
1C00
1800
3800
3000
7000
E000
FFFC
FFFC
ENDCHAR
STARTCHAR 017C
ENCODING 380
SWIDTH 425 0
DWIDTH 13 0
BBX 12 24 0 0
BITMAP
0600
0600
0600
0600
0000
0000
0000
FFF0
FFF0
0060
00E0
01C0
0180
0300
0700
0600
0C00
1C00
3800
3000
7000
E000
FFF0
FFF0
ENDCHAR
STARTCHAR 017D
ENCODING 381
SWIDTH 490 0
DWIDTH 15 0
BBX 14 29 0 0
BITMAP
3870
1CE0
0FC0
0700
0000
0000
FFFC
FFFC
001C
0038
0038
0070
0060
00E0
01C0
0180
0380
0300
0700
0E00
0C00
1C00
1800
3800
7000
6000
E000
FFFC
FFFC
ENDCHAR
STARTCHAR 017E
ENCODING 382
SWIDTH 425 0
DWIDTH 13 0
BBX 12 24 0 0
BITMAP
70E0
39C0
1F00
0E00
0000
0000
0000
FFE0
FFE0
0060
00C0
01C0
0180
0300
0700
0600
0C00
1C00
3800
3000
7000
E000
FFF0
FFF0
ENDCHAR
STARTCHAR 0218
ENCODING 536
SWIDTH 490 0
DWIDTH 15 0
BBX 14 30 0 -7
BITMAP
07C0
1FF0
3878
3018
600C
600C
6000
7000
3800
3E00
1FC0
03F0
0078
0018
001C
000C
E00C
600C
600C
7018
3878
1FF0
07C0
0000
0000
0180
0300
0700
0600
0E00
ENDCHAR
STARTCHAR 0219
ENCODING 537
SWIDTH 392 0
DWIDTH 12 0
BBX 10 24 1 -7
BITMAP
1E00
7F00
6380
C180
C000
E000
F000
7E00
1F00
0380
01C0
00C0
C0C0
C0C0
E180
7F80
1E00
0000
0000
0C00
1800
1800
1000
3000
ENDCHAR
STARTCHAR 021A
ENCODING 538
SWIDTH 425 0
DWIDTH 13 0
BBX 12 30 0 -7
BITMAP
FFF0
FFF0
0600
0600
0600
0600
0600
0600
0600
0600
0600
0600
0600
0600
0600
0600
0600
0600
0600
0600
0600
0600
0600
0000
0000
0600
0600
0C00
0C00
1800
ENDCHAR
STARTCHAR 021B
ENCODING 539
SWIDTH 327 0
DWIDTH 10 0
BBX 10 30 0 -7
BITMAP
0C00
0C00
0C00
0C00
0C00
0C00
FFC0
FFC0
0C00
0C00
0C00
0C00
0C00
0C00
0C00
0C00
0C00
0C00
0C00
0C00
0C00
0C00
0C00
0000
0000
0C00
0C00
1800
1800
3000
ENDCHAR
STARTCHAR 02C7
ENCODING 711
SWIDTH 490 0
DWIDTH 15 0
BBX 9 4 3 20
BITMAP
C180
7300
3E00
1C00
ENDCHAR
STARTCHAR 02D8
ENCODING 728
SWIDTH 458 0
DWIDTH 14 0
BBX 11 3 2 20
BITMAP
E0E0
7FC0
1F00
ENDCHAR
STARTCHAR 02D9
ENCODING 729
SWIDTH 229 0
DWIDTH 7 0
BBX 2 4 2 20
BITMAP
C0
C0
C0
C0
ENDCHAR
STARTCHAR 02DB
ENCODING 731
SWIDTH 294 0
DWIDTH 9 0
BBX 5 6 2 -5
BITMAP
30
60
C0
C0
68
38
ENDCHAR
STARTCHAR 02DD
ENCODING 733
SWIDTH 556 0
DWIDTH 17 0
BBX 12 5 3 19
BITMAP
0C30
1CE0
39C0
E380
4300
ENDCHAR
STARTCHAR 0394
ENCODING 916
SWIDTH 621 0
DWIDTH 19 0
BBX 18 21 0 1
BITMAP
004000
004000
00E000
00E000
01F000
017000
037000
023800
023800
043C00
041C00
0C1C00
081E00
180E00
100F00
300700
200700
200780
400380
7FFFC0
FFFFC0
ENDCHAR
STARTCHAR 03BC
ENCODING 956
SWIDTH 621 0
DWIDTH 19 0
BBX 13 22 3 -6
BITMAP
C018
C018
C018
C018
C018
C018
C018
C018
C018
C018
C018
C018
E038
E038
F078
DFD8
CF98
C000
C000
C000
C000
C000
ENDCHAR
STARTCHAR 2013
ENCODING 8211
SWIDTH 490 0
DWIDTH 15 0
BBX 13 2 1 8
BITMAP
FFF8
FFF8
ENDCHAR
STARTCHAR 2014
ENCODING 8212
SWIDTH 1014 0
DWIDTH 31 0
BBX 28 2 1 8
BITMAP
FFFFFFF0
FFFFFFF0
ENDCHAR
STARTCHAR 2018
ENCODING 8216
SWIDTH 360 0
DWIDTH 11 0
BBX 5 6 3 16
BITMAP
E0
60
60
30
30
38
ENDCHAR
STARTCHAR 2019
ENCODING 8217
SWIDTH 360 0
DWIDTH 11 0
BBX 5 6 3 16
BITMAP
18
30
30
60
60
E0
ENDCHAR
STARTCHAR 201A
ENCODING 8218
SWIDTH 360 0
DWIDTH 11 0
BBX 5 6 3 -2
BITMAP
18
30
30
60
60
E0
ENDCHAR
STARTCHAR 201C
ENCODING 8220
SWIDTH 490 0
DWIDTH 15 0
BBX 9 6 3 16
BITMAP
C600
6600
6700
7300
3300
3980
ENDCHAR
STARTCHAR 201D
ENCODING 8221
SWIDTH 490 0
DWIDTH 15 0
BBX 9 6 3 16
BITMAP
3180
3300
7300
6700
E600
CE00
ENDCHAR
STARTCHAR 201E
ENCODING 8222
SWIDTH 490 0
DWIDTH 15 0
BBX 9 6 3 -2
BITMAP
3980
3300
7300
6700
6600
CE00
ENDCHAR
STARTCHAR 2020
ENCODING 8224
SWIDTH 556 0
DWIDTH 17 0
BBX 14 27 1 -4
BITMAP
0300
0300
0300
0300
0300
0300
FFFC
FFFC
0300
0300
0300
0300
0300
0300
0300
0300
0300
0300
0300
0300
0300
0300
0300
0300
0300
0300
0300
ENDCHAR
STARTCHAR 2021
ENCODING 8225
SWIDTH 556 0
DWIDTH 17 0
BBX 14 27 1 -5
BITMAP
0300
0300
0300
0300
0300
0300
FFFC
FFFC
0300
0300
0300
0300
0300
0300
0300
0300
0300
0300
0300
FFFC
FFFC
0300
0300
0300
0300
0300
0300
ENDCHAR
STARTCHAR 2022
ENCODING 8226
SWIDTH 621 0
DWIDTH 19 0
BBX 9 10 5 7
BITMAP
1C00
7F00
7F00
FF80
FF80
FF80
FF80
7F00
7F00
1C00
ENDCHAR
STARTCHAR 2026
ENCODING 8230
SWIDTH 1014 0
DWIDTH 31 0
BBX 22 4 4 0
BITMAP
C0300C
C0300C
C0300C
C0300C
ENDCHAR
STARTCHAR 2030
ENCODING 8240
SWIDTH 1178 0
DWIDTH 36 0
BBX 34 23 1 0
BITMAP
1F00C00000
3F81800000
60C1800000
E063000000
C063000000
C066000000
C066000000
E0EC000000
71CC000000
3F98000000
1F10000000
0030000000
0061C01C00
0067F07F00
00CE38E380
00DC1DC1C0
01980D80C0
01980D80C0
03180D80C0
031C0DC0C0
060E18E180
0C07F07F00
0C03E03E00
ENDCHAR
STARTCHAR 2039
ENCODING 8249
SWIDTH 261 0
DWIDTH 8 0
BBX 5 12 1 3
BITMAP
10
38
30
70
60
E0
E0
60
70
30
38
10
ENDCHAR
STARTCHAR 203A
ENCODING 8250
SWIDTH 261 0
DWIDTH 8 0
BBX 5 12 1 3
BITMAP
40
E0
60
70
30
38
38
30
70
60
E0
40
ENDCHAR
STARTCHAR 20AC
ENCODING 8364
SWIDTH 556 0
DWIDTH 17 0
BBX 14 23 1 0
BITMAP
01F8
07FC
0F0C
1C00
1800
1800
3000
3000
FFF8
FFF8
3000
3000
3000
FFE0
FFE0
3000
3000
1800
1800
1C00
0F1C
07FC
01F8
ENDCHAR
STARTCHAR 2122
ENCODING 8482
SWIDTH 1014 0
DWIDTH 31 0
BBX 24 14 1 9
BITMAP
FF7007
187007
18780F
18680B
186C1B
186C1B
186613
186633
186223
186363
186363
1861C3
1861C3
186083
ENDCHAR
STARTCHAR 2202
ENCODING 8706
SWIDTH 490 0
DWIDTH 15 0
BBX 13 23 1 -2
BITMAP
3F00
7180
00C0
0060
0030
0030
0030
0018
0018
0018
0018
1F98
3878
7038
6038
C038
C038
C070
C070
C0E0
60E0
73C0
1F00
ENDCHAR
STARTCHAR 2206
ENCODING 8710
SWIDTH 621 0
DWIDTH 19 0
BBX 18 21 0 1
BITMAP
004000
004000
00E000
00E000
01F000
017000
037000
023800
023800
043C00
041C00
0C1C00
081E00
180E00
100F00
300700
200700
200780
400380
7FFFC0
FFFFC0
ENDCHAR
STARTCHAR 2211
ENCODING 8721
SWIDTH 589 0
DWIDTH 18 0
BBX 17 22 1 0
BITMAP
FFFE00
7FFE00
380200
1C0000
1C0000
0E0000
070000
038000
03C000
01C000
00E000
006000
00C000
01C000
018000
030000
060000
0C0080
180080
300180
7FFF00
FFFF00
ENDCHAR
STARTCHAR 2219
ENCODING 8729
SWIDTH 261 0
DWIDTH 8 0
BBX 2 4 3 6
BITMAP
C0
C0
C0
C0
ENDCHAR
STARTCHAR 221A
ENCODING 8730
SWIDTH 458 0
DWIDTH 14 0
BBX 13 24 0 -3
BITMAP
0018
0018
0018
0010
0010
0030
0030
0030
0030
0030
3020
F820
9860
0C60
0C60
0460
0660
0240
03C0
03C0
01C0
01C0
00C0
0080
ENDCHAR
STARTCHAR 2260
ENCODING 8800
SWIDTH 556 0
DWIDTH 17 0
BBX 16 17 0 -1
BITMAP
0018
0038
0030
0070
FFFF
FFFF
01C0
0180
0380
0380
0300
FFFF
FFFF
0C00
1C00
1800
1800
ENDCHAR
STARTCHAR 2264
ENCODING 8804
SWIDTH 556 0
DWIDTH 17 0
BBX 15 20 1 1
BITMAP
0006
001E
007C
03F0
0F80
3E00
F800
E000
F800
3E00
0F80
03E0
00F8
003E
0006
0000
0000
0000
FFFE
FFFE
ENDCHAR
STARTCHAR 2265
ENCODING 8805
SWIDTH 556 0
DWIDTH 17 0
BBX 15 20 1 1
BITMAP
C000
F000
7C00
1F80
03E0
00F8
003E
000E
003E
00F8
03E0
0F80
3E00
F800
C000
0000
0000
0000
FFFE
FFFE
ENDCHAR
STARTCHAR 25CA
ENCODING 9674
SWIDTH 458 0
DWIDTH 14 0
BBX 14 22 0 1
BITMAP
0300
0780
07C0
0CC0
1CE0
1860
3870
3030
7038
6018
E01C
E01C
6018
3038
3830
1860
1CE0
0CC0
0FC0
0780
0780
0300
ENDCHAR
ENDFONT
